<svg xmlns="http://www.w3.org/2000/svg" viewBox="0 0 48 51.1" role="img" aria-label="Logo">
  <path fill="#004AF7" d="M45.4,34.2h-6.2c0,0,0,0,0,0c1.5-2.6,2.4-5.7,2.4-9c0-3-0.7-5.8-2-8.2c0,0,0.1,0,0.1,0h5.8
    c1.3,0,1.8-1.7,0.8-2.5L25.2,0.6c-1.1-0.8-2.6-0.8-3.8,0L0.6,14.5c-1.1,0.7-0.5,2.5,0.8,2.5h5.8c0,0,0.1,0,0.1,0
    c-1.3,2.5-2,5.3-2,8.2c0,3.3,0.9,6.3,2.4,9c0,0,0,0,0,0H1.3c-1.3,0-1.8,1.7-0.8,2.5l20.9,13.9c1.1,0.8,2.6,0.8,3.8,0l20.9-13.9
    C47.2,35.9,46.7,34.2,45.4,34.2z M28.8,36.2c-0.1,0.2-0.3,0.2-0.4,0c-0.5-2.3-2.2-4.4-5-4.4s-4.5,2.2-5,4.4c0,0.2-0.3,0.2-0.4,0
    c-0.3-0.7-0.4-1.4-0.4-2.2c0-3.2,2.6-5.8,5.8-5.8c3.2,0,5.8,2.6,5.8,5.8C29.3,34.7,29.1,35.5,28.8,36.2z M33.4,33.7
    c-0.4,0.9-0.9,1.8-1.6,2.5c-0.2,0.3-0.7,0-0.5-0.3c0,0,0,0,0,0c1.4-4-0.6-8.5-4.6-10.2c-4-1.7-8.6,0.1-10.5,3.9c0,0,0,0,0,0
    c-0.1,0.3-0.6,0.2-0.6-0.2c0.1-1,0.3-1.9,0.7-2.9c2-4.7,7.4-6.9,12.2-5C33.2,23.6,35.4,29,33.4,33.7z M37.1,27.4
    c-0.1,0.5-0.8,0.5-0.9,0c-0.1-0.8-0.3-1.5-0.6-2.3c-2.3-5.8-9.3-9-15.2-6.7c-5.9,2.3-8.4,9.1-6.1,14.9c0.3,0.8,0.7,1.5,1.1,2.1
    c0.3,0.5-0.3,1-0.7,0.6c-1.8-1.4-3.2-3.4-4.1-5.6c-2.8-7.1,0.7-15,7.8-17.8s15.1,0.7,17.9,7.8C37.1,22.8,37.4,25.2,37.1,27.4z"/>
</svg>
